<?xml version="1.0" ?><svg fill="none" height="24" viewBox="0 0 24 24" width="24" xmlns="http://www.w3.org/2000/svg"><path clip-rule="evenodd" d="M3.5 5C3.5 4.17157 4.17157 3.5 5 3.5H19C19.8284 3.5 20.5 4.17157 20.5 5V19C20.5 19.8284 19.8284 20.5 19 20.5H5C4.17157 20.5 3.5 19.8284 3.5 19V5ZM5 4.5C4.72386 4.5 4.5 4.72386 4.5 5V19C4.5 19.2761 4.72386 19.5 5 19.5H19C19.2761 19.5 19.5 19.2761 19.5 19V5C19.5 4.72386 19.2761 4.5 19 4.5H5Z" fill="black" fill-rule="evenodd"/><path clip-rule="evenodd" d="M12 7.5C11.1716 7.5 10.5 8.17157 10.5 9C10.5 9.82843 11.1716 10.5 12 10.5C12.8284 10.5 13.5 9.82843 13.5 9C13.5 8.17157 12.8284 7.5 12 7.5ZM9.5 9C9.5 7.61929 10.6193 6.5 12 6.5C13.3807 6.5 14.5 7.61929 14.5 9C14.5 10.3807 13.3807 11.5 12 11.5C10.6193 11.5 9.5 10.3807 9.5 9Z" fill="black" fill-rule="evenodd"/><path clip-rule="evenodd" d="M8.53544 16.5H15.4646C15.2219 14.8039 13.7632 13.5 12 13.5C10.2368 13.5 8.77806 14.8039 8.53544 16.5ZM7.5 17C7.5 14.5147 9.51472 12.5 12 12.5C14.4853 12.5 16.5 14.5147 16.5 17C16.5 17.2761 16.2761 17.5 16 17.5H8C7.72386 17.5 7.5 17.2761 7.5 17Z" fill="black" fill-rule="evenodd"/></svg>